<svg width="903" height="434" viewBox="0 0 903 434" fill="none" xmlns="http://www.w3.org/2000/svg">
<g filter="url(#filter0_d_207_38)">
<path d="M338.2 283H355.6C357.2 283 358.533 283.533 359.6 284.6C360.667 285.667 361.2 286.933 361.2 288.4V318.2C361.2 319.667 360.667 320.933 359.6 322C358.533 323.067 357.267 323.6 355.8 323.6H338.2V340.6C338.2 342.067 337.667 343.333 336.6 344.4C335.533 345.467 334.267 346 332.8 346H295.6C294.133 346 292.867 345.467 291.8 344.4C290.733 343.333 290.2 342.067 290.2 340.6V323.6H230.4C228.933 323.6 227.667 323.067 226.6 322C225.533 320.933 225 319.667 225 318.2V289.6C225 287.333 225.733 285.267 227.2 283.4L283.8 209.4C285.667 207.133 288.133 206 291.2 206H332.8C334.267 206 335.533 206.533 336.6 207.6C337.667 208.667 338.2 209.933 338.2 211.4V283ZM291.6 285.2V256.4L270.6 285.2H291.6ZM641.52 283H658.92C660.52 283 661.854 283.533 662.92 284.6C663.987 285.667 664.52 286.933 664.52 288.4V318.2C664.52 319.667 663.987 320.933 662.92 322C661.854 323.067 660.587 323.6 659.12 323.6H641.52V340.6C641.52 342.067 640.987 343.333 639.92 344.4C638.854 345.467 637.587 346 636.12 346H598.92C597.454 346 596.187 345.467 595.12 344.4C594.054 343.333 593.52 342.067 593.52 340.6V323.6H533.72C532.254 323.6 530.987 323.067 529.92 322C528.854 320.933 528.32 319.667 528.32 318.2V289.6C528.32 287.333 529.054 285.267 530.52 283.4L587.12 209.4C588.987 207.133 591.454 206 594.52 206H636.12C637.587 206 638.854 206.533 639.92 207.6C640.987 208.667 641.52 209.933 641.52 211.4V283ZM594.92 285.2V256.4L573.92 285.2H594.92Z" fill="white"/>
<path d="M434.227 255.6V295.8C434.227 299.667 435.16 302.8 437.027 305.2C438.893 307.6 441.627 308.8 445.227 308.8C448.827 308.8 451.56 307.6 453.427 305.2C455.293 302.8 456.227 299.667 456.227 295.8V255.6C456.227 246.933 452.56 242.6 445.227 242.6C437.893 242.6 434.227 246.933 434.227 255.6ZM508.227 257.6V294.2C508.227 311.4 502.56 324.667 491.227 334C480.027 343.333 464.693 348 445.227 348C425.76 348 410.36 343.333 399.027 334C387.827 324.533 382.227 311.133 382.227 293.8V258C382.227 240.8 388.027 227.533 399.627 218.2C411.36 208.733 426.56 204 445.227 204C463.893 204 479.027 208.733 490.627 218.2C502.36 227.533 508.227 240.667 508.227 257.6Z" fill="#DBFF00"/>
</g>
<g filter="url(#filter1_d_207_38)">
<path d="M226.08 396.38V398.9C226.08 399.716 226.188 400.304 226.404 400.664C226.62 401.024 226.956 401.204 227.412 401.204C227.868 401.204 228.18 401.132 228.348 400.988C228.516 400.82 228.684 400.52 228.852 400.088C229.044 399.632 229.392 399.404 229.896 399.404H236.916C237.18 399.404 237.408 399.5 237.6 399.692C237.792 399.884 237.888 400.136 237.888 400.448C237.888 400.76 237.78 401.18 237.564 401.708C237.348 402.236 236.976 402.836 236.448 403.508C235.92 404.18 235.272 404.804 234.504 405.38C233.736 405.932 232.728 406.4 231.48 406.784C230.232 407.168 228.852 407.36 227.34 407.36C224.34 407.36 221.904 406.58 220.032 405.02C218.184 403.436 217.26 401.252 217.26 398.468V396.812C217.26 394.028 218.184 391.856 220.032 390.296C221.904 388.712 224.34 387.92 227.34 387.92C229.116 387.92 230.724 388.196 232.164 388.748C233.604 389.276 234.708 389.936 235.476 390.728C236.268 391.496 236.868 392.252 237.276 392.996C237.684 393.74 237.888 394.316 237.888 394.724C237.888 395.108 237.792 395.396 237.6 395.588C237.408 395.78 237.18 395.876 236.916 395.876H229.896C229.44 395.876 229.092 395.636 228.852 395.156C228.516 394.436 228.072 394.076 227.52 394.076C226.56 394.076 226.08 394.844 226.08 396.38ZM240.289 388.28H258.109C258.373 388.28 258.601 388.376 258.793 388.568C258.985 388.76 259.081 388.988 259.081 389.252V393.608C259.081 393.872 258.985 394.1 258.793 394.292C258.601 394.484 258.373 394.58 258.109 394.58H253.321V406.028C253.321 406.292 253.225 406.52 253.033 406.712C252.841 406.904 252.613 407 252.349 407H246.049C245.785 407 245.557 406.904 245.365 406.712C245.173 406.52 245.077 406.292 245.077 406.028V394.58H240.289C240.025 394.58 239.797 394.484 239.605 394.292C239.413 394.1 239.317 393.872 239.317 393.608V389.252C239.317 388.988 239.413 388.76 239.605 388.568C239.797 388.376 240.025 388.28 240.289 388.28ZM282.277 396.236V399.08C282.277 401.768 281.557 403.82 280.117 405.236C278.677 406.652 276.913 407.36 274.825 407.36C272.761 407.36 271.105 406.796 269.857 405.668V412.904C269.857 413.168 269.761 413.396 269.569 413.588C269.377 413.78 269.149 413.876 268.885 413.876H262.225C261.961 413.876 261.733 413.78 261.541 413.588C261.349 413.396 261.253 413.168 261.253 412.904V389.252C261.253 388.988 261.349 388.76 261.541 388.568C261.733 388.376 261.961 388.28 262.225 388.28H268.345C268.609 388.28 268.837 388.376 269.029 388.568C269.221 388.76 269.317 388.988 269.317 389.252V390.332C270.565 388.724 272.329 387.92 274.609 387.92C276.889 387.92 278.737 388.604 280.153 389.972C281.569 391.316 282.277 393.404 282.277 396.236ZM269.857 396.452V399.116C269.929 400.316 270.529 400.916 271.657 400.916C272.857 400.916 273.457 400.22 273.457 398.828V396.452C273.457 395.06 272.857 394.364 271.657 394.364C270.457 394.364 269.857 395.06 269.857 396.452ZM284.795 401.636C284.795 398.324 287.423 396.248 292.679 395.408L296.495 394.796C296.495 394.076 296.435 393.596 296.315 393.356C296.195 393.092 295.907 392.96 295.451 392.96C295.019 392.96 294.587 393.152 294.155 393.536C293.723 393.92 293.315 394.112 292.931 394.112H286.811C286.283 394.112 286.019 393.86 286.019 393.356C286.019 392.828 286.199 392.276 286.559 391.7C286.943 391.1 287.483 390.512 288.179 389.936C288.899 389.36 289.895 388.88 291.167 388.496C292.463 388.112 293.903 387.92 295.487 387.92C298.703 387.92 301.115 388.592 302.723 389.936C304.331 391.28 305.135 393.2 305.135 395.696V406.028C305.135 406.292 305.039 406.52 304.847 406.712C304.655 406.904 304.427 407 304.163 407H297.863C297.599 407 297.371 406.904 297.179 406.712C296.987 406.52 296.891 406.292 296.891 406.028V405.02C295.763 406.58 294.119 407.36 291.959 407.36C289.799 407.36 288.059 406.82 286.739 405.74C285.443 404.636 284.795 403.268 284.795 401.636ZM294.263 402.032C295.823 402.032 296.603 401.096 296.603 399.224L294.479 399.692C293.423 399.932 292.895 400.376 292.895 401.024C292.895 401.312 293.015 401.552 293.255 401.744C293.495 401.936 293.831 402.032 294.263 402.032ZM328.194 407H321.75C321.486 407 321.258 406.904 321.066 406.712C320.874 406.52 320.778 406.292 320.778 406.028V400.7H316.926V406.028C316.926 406.292 316.83 406.52 316.638 406.712C316.446 406.904 316.218 407 315.954 407H309.51C309.246 407 309.018 406.904 308.826 406.712C308.634 406.52 308.538 406.292 308.538 406.028V389.252C308.538 388.988 308.634 388.76 308.826 388.568C309.018 388.376 309.246 388.28 309.51 388.28H315.954C316.218 388.28 316.446 388.376 316.638 388.568C316.83 388.76 316.926 388.988 316.926 389.252V394.4H320.778V389.252C320.778 388.988 320.874 388.76 321.066 388.568C321.258 388.376 321.486 388.28 321.75 388.28H328.194C328.458 388.28 328.686 388.376 328.878 388.568C329.07 388.76 329.166 388.988 329.166 389.252V406.028C329.166 406.292 329.07 406.52 328.878 406.712C328.686 406.904 328.458 407 328.194 407ZM352.417 407H345.973C345.709 407 345.481 406.904 345.289 406.712C345.097 406.52 345.001 406.292 345.001 406.028V400.16L340.969 406.604C340.777 406.868 340.501 407 340.141 407H333.697C333.433 407 333.205 406.904 333.013 406.712C332.845 406.52 332.761 406.292 332.761 406.028V389.252C332.761 388.988 332.857 388.76 333.049 388.568C333.241 388.376 333.469 388.28 333.733 388.28H340.177C340.441 388.28 340.669 388.376 340.861 388.568C341.053 388.76 341.149 388.988 341.149 389.252V395.12L345.145 388.748C345.337 388.436 345.613 388.28 345.973 388.28H352.417C352.681 388.28 352.909 388.376 353.101 388.568C353.293 388.76 353.389 388.988 353.389 389.252V406.028C353.389 406.292 353.293 406.52 353.101 406.712C352.909 406.904 352.681 407 352.417 407ZM372.86 407H357.956C357.692 407 357.464 406.904 357.272 406.712C357.08 406.52 356.984 406.292 356.984 406.028V389.252C356.984 388.988 357.08 388.76 357.272 388.568C357.464 388.376 357.692 388.28 357.956 388.28H364.04C364.304 388.28 364.532 388.376 364.724 388.568C364.916 388.76 365.012 388.988 365.012 389.252V400.7H368.144V389.252C368.144 388.988 368.24 388.76 368.432 388.568C368.624 388.376 368.852 388.28 369.116 388.28H375.2C375.464 388.28 375.692 388.376 375.884 388.568C376.076 388.76 376.172 388.988 376.172 389.252V400.7H378.476C378.74 400.7 378.968 400.796 379.16 400.988C379.352 401.18 379.448 401.408 379.448 401.672V409.7C379.448 409.964 379.352 410.192 379.16 410.384C378.968 410.576 378.74 410.672 378.476 410.672H373.832C373.568 410.672 373.34 410.576 373.148 410.384C372.956 410.192 372.86 409.964 372.86 409.7V407ZM381.44 401.636C381.44 398.324 384.068 396.248 389.324 395.408L393.14 394.796C393.14 394.076 393.08 393.596 392.96 393.356C392.84 393.092 392.552 392.96 392.096 392.96C391.664 392.96 391.232 393.152 390.8 393.536C390.368 393.92 389.96 394.112 389.576 394.112H383.456C382.928 394.112 382.664 393.86 382.664 393.356C382.664 392.828 382.844 392.276 383.204 391.7C383.588 391.1 384.128 390.512 384.824 389.936C385.544 389.36 386.54 388.88 387.812 388.496C389.108 388.112 390.548 387.92 392.132 387.92C395.348 387.92 397.76 388.592 399.368 389.936C400.976 391.28 401.78 393.2 401.78 395.696V406.028C401.78 406.292 401.684 406.52 401.492 406.712C401.3 406.904 401.072 407 400.808 407H394.508C394.244 407 394.016 406.904 393.824 406.712C393.632 406.52 393.536 406.292 393.536 406.028V405.02C392.408 406.58 390.764 407.36 388.604 407.36C386.444 407.36 384.704 406.82 383.384 405.74C382.088 404.636 381.44 403.268 381.44 401.636ZM390.908 402.032C392.468 402.032 393.248 401.096 393.248 399.224L391.124 399.692C390.068 399.932 389.54 400.376 389.54 401.024C389.54 401.312 389.66 401.552 389.9 401.744C390.14 401.936 390.476 402.032 390.908 402.032ZM435.28 407H428.836C428.572 407 428.344 406.904 428.152 406.712C427.96 406.52 427.864 406.292 427.864 406.028V400.7H424.012V406.028C424.012 406.292 423.916 406.52 423.724 406.712C423.532 406.904 423.304 407 423.04 407H416.596C416.332 407 416.104 406.904 415.912 406.712C415.72 406.52 415.624 406.292 415.624 406.028V389.252C415.624 388.988 415.72 388.76 415.912 388.568C416.104 388.376 416.332 388.28 416.596 388.28H423.04C423.304 388.28 423.532 388.376 423.724 388.568C423.916 388.76 424.012 388.988 424.012 389.252V394.4H427.864V389.252C427.864 388.988 427.96 388.76 428.152 388.568C428.344 388.376 428.572 388.28 428.836 388.28H435.28C435.544 388.28 435.772 388.376 435.964 388.568C436.156 388.76 436.252 388.988 436.252 389.252V406.028C436.252 406.292 436.156 406.52 435.964 406.712C435.772 406.904 435.544 407 435.28 407ZM458.855 399.764H448.127V399.944C448.127 401.408 448.595 402.14 449.531 402.14C449.795 402.14 450.119 401.948 450.503 401.564C450.887 401.18 451.307 400.988 451.763 400.988H458.567C459.095 400.988 459.359 401.252 459.359 401.78C459.359 402.956 458.471 404.18 456.695 405.452C454.943 406.724 452.555 407.36 449.531 407.36C446.531 407.36 444.071 406.58 442.151 405.02C440.255 403.436 439.307 401.264 439.307 398.504V396.776C439.307 394.16 440.279 392.036 442.223 390.404C444.167 388.748 446.711 387.92 449.855 387.92C453.023 387.92 455.471 388.844 457.199 390.692C458.951 392.54 459.827 394.88 459.827 397.712V398.792C459.827 399.056 459.731 399.284 459.539 399.476C459.347 399.668 459.119 399.764 458.855 399.764ZM451.007 395.12C451.007 393.68 450.527 392.96 449.567 392.96C448.607 392.96 448.127 393.68 448.127 395.12V395.264H451.007V395.12ZM492.972 407H486.528C486.264 407 486.036 406.904 485.844 406.712C485.652 406.52 485.556 406.292 485.556 406.028V400.7H481.704V406.028C481.704 406.292 481.608 406.52 481.416 406.712C481.224 406.904 480.996 407 480.732 407H474.288C474.024 407 473.796 406.904 473.604 406.712C473.412 406.52 473.316 406.292 473.316 406.028V389.252C473.316 388.988 473.412 388.76 473.604 388.568C473.796 388.376 474.024 388.28 474.288 388.28H480.732C480.996 388.28 481.224 388.376 481.416 388.568C481.608 388.76 481.704 388.988 481.704 389.252V394.4H485.556V389.252C485.556 388.988 485.652 388.76 485.844 388.568C486.036 388.376 486.264 388.28 486.528 388.28H492.972C493.236 388.28 493.464 388.376 493.656 388.568C493.848 388.76 493.944 388.988 493.944 389.252V406.028C493.944 406.292 493.848 406.52 493.656 406.712C493.464 406.904 493.236 407 492.972 407ZM496.998 401.636C496.998 398.324 499.626 396.248 504.882 395.408L508.698 394.796C508.698 394.076 508.638 393.596 508.518 393.356C508.398 393.092 508.11 392.96 507.654 392.96C507.222 392.96 506.79 393.152 506.358 393.536C505.926 393.92 505.518 394.112 505.134 394.112H499.014C498.486 394.112 498.222 393.86 498.222 393.356C498.222 392.828 498.402 392.276 498.762 391.7C499.146 391.1 499.686 390.512 500.382 389.936C501.102 389.36 502.098 388.88 503.37 388.496C504.666 388.112 506.106 387.92 507.69 387.92C510.906 387.92 513.318 388.592 514.926 389.936C516.534 391.28 517.338 393.2 517.338 395.696V406.028C517.338 406.292 517.242 406.52 517.05 406.712C516.858 406.904 516.63 407 516.366 407H510.066C509.802 407 509.574 406.904 509.382 406.712C509.19 406.52 509.094 406.292 509.094 406.028V405.02C507.966 406.58 506.322 407.36 504.162 407.36C502.002 407.36 500.262 406.82 498.942 405.74C497.646 404.636 496.998 403.268 496.998 401.636ZM506.466 402.032C508.026 402.032 508.806 401.096 508.806 399.224L506.682 399.692C505.626 399.932 505.098 400.376 505.098 401.024C505.098 401.312 505.218 401.552 505.458 401.744C505.698 401.936 506.034 402.032 506.466 402.032ZM540.397 407H533.953C533.689 407 533.461 406.904 533.269 406.712C533.077 406.52 532.981 406.292 532.981 406.028V400.16L528.949 406.604C528.757 406.868 528.481 407 528.121 407H521.677C521.413 407 521.185 406.904 520.993 406.712C520.825 406.52 520.741 406.292 520.741 406.028V389.252C520.741 388.988 520.837 388.76 521.029 388.568C521.221 388.376 521.449 388.28 521.713 388.28H528.157C528.421 388.28 528.649 388.376 528.841 388.568C529.033 388.76 529.129 388.988 529.129 389.252V395.12L533.125 388.748C533.317 388.436 533.593 388.28 533.953 388.28H540.397C540.661 388.28 540.889 388.376 541.081 388.568C541.273 388.76 541.369 388.988 541.369 389.252V406.028C541.369 406.292 541.273 406.52 541.081 406.712C540.889 406.904 540.661 407 540.397 407ZM532.513 381.296C532.513 380.84 532.741 380.612 533.197 380.612H536.581C537.037 380.612 537.265 380.84 537.265 381.296C537.265 382.928 536.713 384.212 535.609 385.148C534.529 386.084 533.005 386.552 531.037 386.552C529.069 386.552 527.545 386.084 526.465 385.148C525.385 384.212 524.845 382.928 524.845 381.296C524.845 380.84 525.073 380.612 525.529 380.612H528.913C529.369 380.612 529.597 380.84 529.597 381.296C529.597 382.496 530.077 383.096 531.037 383.096C532.021 383.096 532.513 382.496 532.513 381.296ZM566.204 410.708H561.38C561.116 410.708 560.888 410.612 560.696 410.42C560.504 410.228 560.408 410 560.408 409.736V407.036H551.372V409.736C551.372 410 551.276 410.228 551.084 410.42C550.892 410.612 550.664 410.708 550.4 410.708H545.576C545.312 410.708 545.084 410.612 544.892 410.42C544.7 410.228 544.604 410 544.604 409.736V402.032C544.604 401.768 544.7 401.54 544.892 401.348C545.084 401.156 545.312 401.06 545.576 401.06H546.656C546.968 401.06 547.208 400.904 547.376 400.592C547.568 400.256 547.664 399.86 547.664 399.404V389.252C547.664 388.988 547.76 388.76 547.952 388.568C548.144 388.376 548.372 388.28 548.636 388.28H563.828C564.092 388.28 564.32 388.376 564.512 388.568C564.704 388.76 564.8 388.988 564.8 389.252V401.06H566.204C566.468 401.06 566.696 401.156 566.888 401.348C567.08 401.54 567.176 401.768 567.176 402.032V409.736C567.176 410 567.08 410.228 566.888 410.42C566.696 410.612 566.468 410.708 566.204 410.708ZM555.116 394.22V399.08C555.116 399.512 555.068 400.112 554.972 400.88H557.312V394.22H555.116ZM589.425 399.764H578.697V399.944C578.697 401.408 579.165 402.14 580.101 402.14C580.365 402.14 580.689 401.948 581.073 401.564C581.457 401.18 581.877 400.988 582.333 400.988H589.137C589.665 400.988 589.929 401.252 589.929 401.78C589.929 402.956 589.041 404.18 587.265 405.452C585.513 406.724 583.125 407.36 580.101 407.36C577.101 407.36 574.641 406.58 572.721 405.02C570.825 403.436 569.877 401.264 569.877 398.504V396.776C569.877 394.16 570.849 392.036 572.793 390.404C574.737 388.748 577.281 387.92 580.425 387.92C583.593 387.92 586.041 388.844 587.769 390.692C589.521 392.54 590.397 394.88 590.397 397.712V398.792C590.397 399.056 590.301 399.284 590.109 399.476C589.917 399.668 589.689 399.764 589.425 399.764ZM581.577 395.12C581.577 393.68 581.097 392.96 580.137 392.96C579.177 392.96 578.697 393.68 578.697 395.12V395.264H581.577V395.12ZM613.101 407H606.657C606.393 407 606.165 406.904 605.973 406.712C605.781 406.52 605.685 406.292 605.685 406.028V400.7H601.833V406.028C601.833 406.292 601.737 406.52 601.545 406.712C601.353 406.904 601.125 407 600.861 407H594.417C594.153 407 593.925 406.904 593.733 406.712C593.541 406.52 593.445 406.292 593.445 406.028V389.252C593.445 388.988 593.541 388.76 593.733 388.568C593.925 388.376 594.153 388.28 594.417 388.28H600.861C601.125 388.28 601.353 388.376 601.545 388.568C601.737 388.76 601.833 388.988 601.833 389.252V394.4H605.685V389.252C605.685 388.988 605.781 388.76 605.973 388.568C606.165 388.376 606.393 388.28 606.657 388.28H613.101C613.365 388.28 613.593 388.376 613.785 388.568C613.977 388.76 614.073 388.988 614.073 389.252V406.028C614.073 406.292 613.977 406.52 613.785 406.712C613.593 406.904 613.365 407 613.101 407ZM617.127 401.636C617.127 398.324 619.755 396.248 625.011 395.408L628.827 394.796C628.827 394.076 628.767 393.596 628.647 393.356C628.527 393.092 628.239 392.96 627.783 392.96C627.351 392.96 626.919 393.152 626.487 393.536C626.055 393.92 625.647 394.112 625.263 394.112H619.143C618.615 394.112 618.351 393.86 618.351 393.356C618.351 392.828 618.531 392.276 618.891 391.7C619.275 391.1 619.815 390.512 620.511 389.936C621.231 389.36 622.227 388.88 623.499 388.496C624.795 388.112 626.235 387.92 627.819 387.92C631.035 387.92 633.447 388.592 635.055 389.936C636.663 391.28 637.467 393.2 637.467 395.696V406.028C637.467 406.292 637.371 406.52 637.179 406.712C636.987 406.904 636.759 407 636.495 407H630.195C629.931 407 629.703 406.904 629.511 406.712C629.319 406.52 629.223 406.292 629.223 406.028V405.02C628.095 406.58 626.451 407.36 624.291 407.36C622.131 407.36 620.391 406.82 619.071 405.74C617.775 404.636 617.127 403.268 617.127 401.636ZM626.595 402.032C628.155 402.032 628.935 401.096 628.935 399.224L626.811 399.692C625.755 399.932 625.227 400.376 625.227 401.024C625.227 401.312 625.347 401.552 625.587 401.744C625.827 401.936 626.163 402.032 626.595 402.032ZM651.924 399.152H658.188C658.452 399.152 658.68 399.248 658.872 399.44C659.064 399.632 659.16 399.86 659.16 400.124V406.028C659.16 406.292 659.064 406.52 658.872 406.712C658.68 406.904 658.452 407 658.188 407H651.924C651.66 407 651.432 406.904 651.24 406.712C651.048 406.52 650.952 406.292 650.952 406.028V400.124C650.952 399.86 651.048 399.632 651.24 399.44C651.432 399.248 651.66 399.152 651.924 399.152ZM651.924 386.552H658.188C658.452 386.552 658.68 386.648 658.872 386.84C659.064 387.032 659.16 387.26 659.16 387.524V393.428C659.16 393.692 659.064 393.92 658.872 394.112C658.68 394.304 658.452 394.4 658.188 394.4H651.924C651.66 394.4 651.432 394.304 651.24 394.112C651.048 393.92 650.952 393.692 650.952 393.428V387.524C650.952 387.26 651.048 387.032 651.24 386.84C651.432 386.648 651.66 386.552 651.924 386.552ZM668.866 390.944V400.844C668.866 402.284 669.298 403.496 670.162 404.48C671.026 405.464 672.13 406.04 673.474 406.208C673.642 406.232 673.798 406.316 673.942 406.46C674.086 406.604 674.158 406.784 674.158 407V411.932C674.158 412.148 674.074 412.328 673.906 412.472C673.762 412.64 673.582 412.724 673.366 412.724C670.222 412.724 667.606 411.668 665.518 409.556C663.43 407.468 662.386 404.576 662.386 400.88V390.908C662.386 387.212 663.43 384.32 665.518 382.232C667.606 380.12 670.222 379.064 673.366 379.064C673.582 379.064 673.762 379.148 673.906 379.316C674.074 379.46 674.158 379.64 674.158 379.856V384.788C674.158 385.004 674.086 385.184 673.942 385.328C673.798 385.472 673.642 385.556 673.474 385.58C672.13 385.748 671.026 386.324 670.162 387.308C669.298 388.292 668.866 389.504 668.866 390.944Z" fill="white"/>
</g>
<g filter="url(#filter2_d_207_38)">
<circle cx="641.569" cy="34.5686" r="24.4437" transform="rotate(45 641.569 34.5686)" fill="white"/>
<g filter="url(#filter3_i_207_38)">
<circle cx="641.569" cy="34.5686" r="16.805" transform="rotate(45 641.569 34.5686)" fill="#7400E8"/>
</g>
<rect x="653.236" y="17.2843" width="7.63865" height="40.6376" transform="rotate(45 653.236 17.2843)" fill="white"/>
</g>
<g filter="url(#filter4_d_207_38)">
<rect x="744" y="182.333" width="16.0277" height="80.1387" rx="8.01387" transform="rotate(-45 744 182.333)" fill="white"/>
<rect x="744" y="182.333" width="16.0277" height="80.1387" rx="8.01387" transform="rotate(-45 744 182.333)" fill="white"/>
<rect x="744" y="182.333" width="16.0277" height="80.1387" rx="8.01387" transform="rotate(-45 744 182.333)" fill="white"/>
<rect x="800.667" y="171" width="16.0277" height="80.1387" rx="8.01387" transform="rotate(45 800.667 171)" fill="white"/>
<rect x="800.667" y="171" width="16.0277" height="80.1387" rx="8.01387" transform="rotate(45 800.667 171)" fill="white"/>
<rect x="800.667" y="171" width="16.0277" height="80.1387" rx="8.01387" transform="rotate(45 800.667 171)" fill="white"/>
</g>
<g filter="url(#filter5_d_207_38)">
<rect x="100" y="238.833" width="8.24957" height="41.2479" rx="4.12479" transform="rotate(-45 100 238.833)" fill="white"/>
<rect x="100" y="238.833" width="8.24957" height="41.2479" rx="4.12479" transform="rotate(-45 100 238.833)" fill="white"/>
<rect x="100" y="238.833" width="8.24957" height="41.2479" rx="4.12479" transform="rotate(-45 100 238.833)" fill="white"/>
<rect x="129.167" y="233" width="8.24957" height="41.2479" rx="4.12479" transform="rotate(45 129.167 233)" fill="white"/>
<rect x="129.167" y="233" width="8.24957" height="41.2479" rx="4.12479" transform="rotate(45 129.167 233)" fill="white"/>
<rect x="129.167" y="233" width="8.24957" height="41.2479" rx="4.12479" transform="rotate(45 129.167 233)" fill="white"/>
</g>
<g filter="url(#filter6_d_207_38)">
<rect x="853" y="346" width="40" height="10" rx="5" fill="white"/>
</g>
<g filter="url(#filter7_d_207_38)">
<rect x="10" y="76" width="40" height="10" rx="5" fill="white"/>
</g>
<g filter="url(#filter8_d_207_38)">
<path d="M281.17 76.5C283.094 73.1667 287.906 73.1667 289.83 76.5L341.359 165.75C343.283 169.083 340.878 173.25 337.029 173.25H233.971C230.122 173.25 227.717 169.083 229.641 165.75L281.17 76.5Z" fill="white"/>
<g filter="url(#filter9_i_207_38)">
<path d="M286 94L325.837 160.75H246.163L286 94Z" fill="#7400E8"/>
</g>
<g filter="url(#filter10_d_207_38)">
<path d="M284.336 144.376C283.909 144.376 283.547 144.248 283.248 143.992C282.992 143.693 282.864 143.331 282.864 142.904V111.672C282.864 111.245 282.992 110.904 283.248 110.648C283.547 110.349 283.909 110.2 284.336 110.2H287.344C287.771 110.2 288.112 110.349 288.368 110.648C288.624 110.904 288.752 111.245 288.752 111.672V142.904C288.752 143.331 288.624 143.693 288.368 143.992C288.112 144.248 287.771 144.376 287.344 144.376H284.336ZM283.76 155C283.333 155 282.971 154.872 282.672 154.616C282.416 154.317 282.288 153.955 282.288 153.528V149.496C282.288 149.027 282.416 148.664 282.672 148.408C282.971 148.109 283.333 147.96 283.76 147.96H287.856C288.283 147.96 288.624 148.109 288.88 148.408C289.179 148.664 289.328 149.027 289.328 149.496V153.528C289.328 153.955 289.179 154.317 288.88 154.616C288.624 154.872 288.283 155 287.856 155H283.76Z" fill="white"/>
</g>
</g>
<defs>
<filter id="filter0_d_207_38" x="215" y="204" width="459.52" height="164" filterUnits="userSpaceOnUse" color-interpolation-filters="sRGB">
<feFlood flood-opacity="0" result="BackgroundImageFix"/>
<feColorMatrix in="SourceAlpha" type="matrix" values="0 0 0 0 0 0 0 0 0 0 0 0 0 0 0 0 0 0 127 0" result="hardAlpha"/>
<feOffset dy="10"/>
<feGaussianBlur stdDeviation="5"/>
<feComposite in2="hardAlpha" operator="out"/>
<feColorMatrix type="matrix" values="0 0 0 0 0 0 0 0 0 0 0 0 0 0 0 0 0 0 0.3 0"/>
<feBlend mode="normal" in2="BackgroundImageFix" result="effect1_dropShadow_207_38"/>
<feBlend mode="normal" in="SourceGraphic" in2="effect1_dropShadow_207_38" result="shape"/>
</filter>
<filter id="filter1_d_207_38" x="207.26" y="379.064" width="476.898" height="54.812" filterUnits="userSpaceOnUse" color-interpolation-filters="sRGB">
<feFlood flood-opacity="0" result="BackgroundImageFix"/>
<feColorMatrix in="SourceAlpha" type="matrix" values="0 0 0 0 0 0 0 0 0 0 0 0 0 0 0 0 0 0 127 0" result="hardAlpha"/>
<feOffset dy="10"/>
<feGaussianBlur stdDeviation="5"/>
<feComposite in2="hardAlpha" operator="out"/>
<feColorMatrix type="matrix" values="0 0 0 0 0 0 0 0 0 0 0 0 0 0 0 0 0 0 0.3 0"/>
<feBlend mode="normal" in2="BackgroundImageFix" result="effect1_dropShadow_207_38"/>
<feBlend mode="normal" in="SourceGraphic" in2="effect1_dropShadow_207_38" result="shape"/>
</filter>
<filter id="filter2_d_207_38" x="607.125" y="10.1249" width="68.8872" height="68.8873" filterUnits="userSpaceOnUse" color-interpolation-filters="sRGB">
<feFlood flood-opacity="0" result="BackgroundImageFix"/>
<feColorMatrix in="SourceAlpha" type="matrix" values="0 0 0 0 0 0 0 0 0 0 0 0 0 0 0 0 0 0 127 0" result="hardAlpha"/>
<feOffset dy="10"/>
<feGaussianBlur stdDeviation="5"/>
<feComposite in2="hardAlpha" operator="out"/>
<feColorMatrix type="matrix" values="0 0 0 0 0 0 0 0 0 0 0 0 0 0 0 0 0 0 0.3 0"/>
<feBlend mode="normal" in2="BackgroundImageFix" result="effect1_dropShadow_207_38"/>
<feBlend mode="normal" in="SourceGraphic" in2="effect1_dropShadow_207_38" result="shape"/>
</filter>
<filter id="filter3_i_207_38" x="624.764" y="17.7635" width="33.6099" height="37.61" filterUnits="userSpaceOnUse" color-interpolation-filters="sRGB">
<feFlood flood-opacity="0" result="BackgroundImageFix"/>
<feBlend mode="normal" in="SourceGraphic" in2="BackgroundImageFix" result="shape"/>
<feColorMatrix in="SourceAlpha" type="matrix" values="0 0 0 0 0 0 0 0 0 0 0 0 0 0 0 0 0 0 127 0" result="hardAlpha"/>
<feOffset dy="4"/>
<feGaussianBlur stdDeviation="3"/>
<feComposite in2="hardAlpha" operator="arithmetic" k2="-1" k3="1"/>
<feColorMatrix type="matrix" values="0 0 0 0 0 0 0 0 0 0 0 0 0 0 0 0 0 0 0.25 0"/>
<feBlend mode="normal" in2="shape" result="effect1_innerShadow_207_38"/>
</filter>
<filter id="filter4_d_207_38" x="737.319" y="174.319" width="81.3613" height="81.3611" filterUnits="userSpaceOnUse" color-interpolation-filters="sRGB">
<feFlood flood-opacity="0" result="BackgroundImageFix"/>
<feColorMatrix in="SourceAlpha" type="matrix" values="0 0 0 0 0 0 0 0 0 0 0 0 0 0 0 0 0 0 127 0" result="hardAlpha"/>
<feOffset dy="10"/>
<feGaussianBlur stdDeviation="5"/>
<feComposite in2="hardAlpha" operator="out"/>
<feColorMatrix type="matrix" values="0 0 0 0 0 0 0 0 0 0 0 0 0 0 0 0 0 0 0.3 0"/>
<feBlend mode="normal" in2="BackgroundImageFix" result="effect1_dropShadow_207_38"/>
<feBlend mode="normal" in="SourceGraphic" in2="effect1_dropShadow_207_38" result="shape"/>
</filter>
<filter id="filter5_d_207_38" x="91.7085" y="234.709" width="51.583" height="51.5829" filterUnits="userSpaceOnUse" color-interpolation-filters="sRGB">
<feFlood flood-opacity="0" result="BackgroundImageFix"/>
<feColorMatrix in="SourceAlpha" type="matrix" values="0 0 0 0 0 0 0 0 0 0 0 0 0 0 0 0 0 0 127 0" result="hardAlpha"/>
<feOffset dy="10"/>
<feGaussianBlur stdDeviation="5"/>
<feComposite in2="hardAlpha" operator="out"/>
<feColorMatrix type="matrix" values="0 0 0 0 0 0 0 0 0 0 0 0 0 0 0 0 0 0 0.3 0"/>
<feBlend mode="normal" in2="BackgroundImageFix" result="effect1_dropShadow_207_38"/>
<feBlend mode="normal" in="SourceGraphic" in2="effect1_dropShadow_207_38" result="shape"/>
</filter>
<filter id="filter6_d_207_38" x="843" y="346" width="60" height="30" filterUnits="userSpaceOnUse" color-interpolation-filters="sRGB">
<feFlood flood-opacity="0" result="BackgroundImageFix"/>
<feColorMatrix in="SourceAlpha" type="matrix" values="0 0 0 0 0 0 0 0 0 0 0 0 0 0 0 0 0 0 127 0" result="hardAlpha"/>
<feOffset dy="10"/>
<feGaussianBlur stdDeviation="5"/>
<feComposite in2="hardAlpha" operator="out"/>
<feColorMatrix type="matrix" values="0 0 0 0 0 0 0 0 0 0 0 0 0 0 0 0 0 0 0.3 0"/>
<feBlend mode="normal" in2="BackgroundImageFix" result="effect1_dropShadow_207_38"/>
<feBlend mode="normal" in="SourceGraphic" in2="effect1_dropShadow_207_38" result="shape"/>
</filter>
<filter id="filter7_d_207_38" x="0" y="76" width="60" height="30" filterUnits="userSpaceOnUse" color-interpolation-filters="sRGB">
<feFlood flood-opacity="0" result="BackgroundImageFix"/>
<feColorMatrix in="SourceAlpha" type="matrix" values="0 0 0 0 0 0 0 0 0 0 0 0 0 0 0 0 0 0 127 0" result="hardAlpha"/>
<feOffset dy="10"/>
<feGaussianBlur stdDeviation="5"/>
<feComposite in2="hardAlpha" operator="out"/>
<feColorMatrix type="matrix" values="0 0 0 0 0 0 0 0 0 0 0 0 0 0 0 0 0 0 0.3 0"/>
<feBlend mode="normal" in2="BackgroundImageFix" result="effect1_dropShadow_207_38"/>
<feBlend mode="normal" in="SourceGraphic" in2="effect1_dropShadow_207_38" result="shape"/>
</filter>
<filter id="filter8_d_207_38" x="218.964" y="74" width="133.072" height="119.25" filterUnits="userSpaceOnUse" color-interpolation-filters="sRGB">
<feFlood flood-opacity="0" result="BackgroundImageFix"/>
<feColorMatrix in="SourceAlpha" type="matrix" values="0 0 0 0 0 0 0 0 0 0 0 0 0 0 0 0 0 0 127 0" result="hardAlpha"/>
<feOffset dy="10"/>
<feGaussianBlur stdDeviation="5"/>
<feComposite in2="hardAlpha" operator="out"/>
<feColorMatrix type="matrix" values="0 0 0 0 0 0 0 0 0 0 0 0 0 0 0 0 0 0 0.3 0"/>
<feBlend mode="normal" in2="BackgroundImageFix" result="effect1_dropShadow_207_38"/>
<feBlend mode="normal" in="SourceGraphic" in2="effect1_dropShadow_207_38" result="shape"/>
</filter>
<filter id="filter9_i_207_38" x="246.163" y="94" width="79.6743" height="72.75" filterUnits="userSpaceOnUse" color-interpolation-filters="sRGB">
<feFlood flood-opacity="0" result="BackgroundImageFix"/>
<feBlend mode="normal" in="SourceGraphic" in2="BackgroundImageFix" result="shape"/>
<feColorMatrix in="SourceAlpha" type="matrix" values="0 0 0 0 0 0 0 0 0 0 0 0 0 0 0 0 0 0 127 0" result="hardAlpha"/>
<feOffset dy="10"/>
<feGaussianBlur stdDeviation="3"/>
<feComposite in2="hardAlpha" operator="arithmetic" k2="-1" k3="1"/>
<feColorMatrix type="matrix" values="0 0 0 0 0 0 0 0 0 0 0 0 0 0 0 0 0 0 0.2 0"/>
<feBlend mode="normal" in2="shape" result="effect1_innerShadow_207_38"/>
</filter>
<filter id="filter10_d_207_38" x="272.288" y="110.2" width="27.0398" height="64.8" filterUnits="userSpaceOnUse" color-interpolation-filters="sRGB">
<feFlood flood-opacity="0" result="BackgroundImageFix"/>
<feColorMatrix in="SourceAlpha" type="matrix" values="0 0 0 0 0 0 0 0 0 0 0 0 0 0 0 0 0 0 127 0" result="hardAlpha"/>
<feOffset dy="10"/>
<feGaussianBlur stdDeviation="5"/>
<feComposite in2="hardAlpha" operator="out"/>
<feColorMatrix type="matrix" values="0 0 0 0 0 0 0 0 0 0 0 0 0 0 0 0 0 0 0.3 0"/>
<feBlend mode="normal" in2="BackgroundImageFix" result="effect1_dropShadow_207_38"/>
<feBlend mode="normal" in="SourceGraphic" in2="effect1_dropShadow_207_38" result="shape"/>
</filter>
</defs>
</svg>
