<svg width="242" height="90" viewBox="0 0 242 90" fill="none" xmlns="http://www.w3.org/2000/svg">
<path d="M30.528 37.616H50.328C50.856 37.616 51.312 37.808 51.696 38.192C52.08 38.576 52.272 39.032 52.272 39.56V48.92C52.272 55.256 50.016 60.152 45.504 63.608C40.992 67.016 34.968 68.72 27.432 68.72C19.944 68.72 14.04 67.064 9.72 63.752C5.4 60.392 3.24 55.376 3.24 48.704V36.608C3.24 30.224 5.448 25.352 9.864 21.992C14.28 18.584 20.16 16.88 27.504 16.88C34.896 16.88 40.872 18.44 45.432 21.56C49.992 24.632 52.272 28.424 52.272 32.936C52.272 33.368 52.104 33.752 51.768 34.088C51.48 34.376 51.12 34.52 50.688 34.52H34.776C33.816 34.52 33.12 34.256 32.688 33.728C31.728 32.48 31.008 31.76 30.528 31.568C29.424 31.136 28.416 30.92 27.504 30.92C23.808 30.92 21.96 32.72 21.96 36.32V48.56C21.96 52.64 23.928 54.68 27.864 54.68C31.896 54.68 33.912 52.952 33.912 49.496H30.528C30 49.496 29.544 49.304 29.16 48.92C28.776 48.536 28.584 48.08 28.584 47.552V39.56C28.584 39.032 28.776 38.576 29.16 38.192C29.544 37.808 30 37.616 30.528 37.616ZM62.1709 17.6H82.9069C89.9149 17.6 95.6749 19.352 100.187 22.856C104.747 26.312 107.027 31.16 107.027 37.4V48.128C107.027 54.656 104.819 59.6 100.403 62.96C95.9869 66.32 90.1789 68 82.9789 68H62.1709C61.6429 68 61.1869 67.808 60.8029 67.424C60.4189 67.04 60.2269 66.584 60.2269 66.056V19.544C60.2269 19.016 60.4189 18.56 60.8029 18.176C61.1869 17.792 61.6429 17.6 62.1709 17.6ZM78.2269 31.64V53.96H82.9069C84.5389 53.96 85.8349 53.48 86.7949 52.52C87.8029 51.512 88.3069 50.048 88.3069 48.128V37.4C88.3069 33.56 86.5069 31.64 82.9069 31.64H78.2269ZM156.546 53.24C157.074 53.24 157.53 53.432 157.914 53.816C158.298 54.2 158.49 54.656 158.49 55.184V66.056C158.49 66.584 158.298 67.04 157.914 67.424C157.53 67.808 157.074 68 156.546 68H115.434C114.906 68 114.45 67.808 114.066 67.424C113.682 67.04 113.49 66.584 113.49 66.056V55.688C113.49 54.728 113.85 53.888 114.57 53.168L134.73 32.216H115.794C115.266 32.216 114.81 32.024 114.426 31.64C114.042 31.256 113.85 30.8 113.85 30.272V19.544C113.85 19.016 114.042 18.56 114.426 18.176C114.81 17.792 115.266 17.6 115.794 17.6H155.61C156.138 17.6 156.594 17.792 156.978 18.176C157.362 18.56 157.554 19.016 157.554 19.544V29.768C157.554 30.728 157.242 31.52 156.618 32.144L137.538 53.24H156.546Z" fill="#7400E8"/>
<rect x="169" y="20.2247" width="73" height="47.5281" rx="20" fill="#7400E8"/>
<path d="M182.896 32.104C185.104 30.328 188.02 29.44 191.644 29.44C195.268 29.44 198.172 30.34 200.356 32.14C202.564 33.916 203.668 36.424 203.668 39.664V45.28C203.668 48.568 202.576 51.076 200.392 52.804C198.232 54.508 195.316 55.36 191.644 55.36C187.972 55.36 185.044 54.508 182.86 52.804C180.7 51.076 179.62 48.568 179.62 45.28V39.664C179.62 36.4 180.712 33.88 182.896 32.104ZM189.7 47.62C190.18 48.1 190.828 48.34 191.644 48.34C192.46 48.34 193.108 48.1 193.588 47.62C194.068 47.14 194.308 46.408 194.308 45.424V39.376C194.308 38.416 194.068 37.696 193.588 37.216C193.108 36.712 192.46 36.46 191.644 36.46C190.828 36.46 190.18 36.712 189.7 37.216C189.22 37.696 188.98 38.416 188.98 39.376V45.424C188.98 46.408 189.22 47.14 189.7 47.62ZM222.813 29.8H229.329C229.593 29.8 229.821 29.896 230.013 30.088C230.205 30.28 230.301 30.508 230.301 30.772V54.028C230.301 54.292 230.205 54.52 230.013 54.712C229.821 54.904 229.593 55 229.329 55H223.641C223.017 55 222.525 54.724 222.165 54.172L216.081 44.992V54.028C216.081 54.292 215.985 54.52 215.793 54.712C215.601 54.904 215.373 55 215.109 55H208.593C208.329 55 208.101 54.904 207.909 54.712C207.717 54.52 207.621 54.292 207.621 54.028V30.772C207.621 30.508 207.717 30.28 207.909 30.088C208.101 29.896 208.329 29.8 208.593 29.8H214.281C214.953 29.8 215.445 30.076 215.757 30.628L221.841 40.6V30.772C221.841 30.508 221.937 30.28 222.129 30.088C222.321 29.896 222.549 29.8 222.813 29.8Z" fill="#DBFF00"/>
</svg>
