<svg width="920" height="1200" viewBox="0 0 920 1200" fill="none" xmlns="http://www.w3.org/2000/svg">
<g filter="url(#filter0_i_201_51)">
<path d="M10 0H910V1200H10V0Z" fill="#7400E8"/>
</g>
<g filter="url(#filter1_d_201_51)">
<path d="M83.78 296.2C83.78 292 80.7933 289.9 74.82 289.9C71.3667 289.9 69.22 290.227 68.38 290.88C67.6333 291.44 66.7 292.28 65.58 293.4C64.5533 294.427 63.2 294.94 61.52 294.94H33.38C32.54 294.94 31.7933 294.66 31.14 294.1C30.58 293.447 30.3 292.327 30.3 290.74C30.3 289.153 30.7667 287.1 31.7 284.58C32.6333 282.06 34.22 279.493 36.46 276.88C38.7 274.173 41.4533 271.793 44.72 269.74C47.9867 267.687 52.2333 266.007 57.46 264.7C62.78 263.3 68.66 262.6 75.1 262.6C88.1667 262.6 98.9467 265.587 107.44 271.56C115.933 277.44 120.18 284.86 120.18 293.82C120.18 302.687 115.887 309.267 107.3 313.56C116.353 317.387 120.88 323.733 120.88 332.6C120.88 341.373 116.54 348.7 107.86 354.58C99.18 360.46 88.26 363.4 75.1 363.4C67.1667 363.4 60.0733 362.42 53.82 360.46C47.66 358.5 42.9 356.027 39.54 353.04C32.9133 346.973 29.6 340.767 29.6 334.42C29.6 333.58 29.88 332.88 30.44 332.32C31.0933 331.667 31.84 331.34 32.68 331.34H60.82C62.5 331.34 64.18 332.18 65.86 333.86C67.54 335.54 70.5267 336.38 74.82 336.38C81.26 336.38 84.48 334.327 84.48 330.22C84.48 327.14 81.2133 325.6 74.68 325.6H60.54C59.5133 325.6 58.6267 325.18 57.88 324.34C57.1333 323.5 56.76 322.567 56.76 321.54V304.74C56.76 303.713 57.1333 302.78 57.88 301.94C58.6267 301.1 59.5133 300.68 60.54 300.68H74.68C78.04 300.68 80.3733 300.353 81.68 299.7C83.08 299.047 83.78 297.88 83.78 296.2ZM167.666 264H198.046C201.406 264 203.506 265.54 204.346 268.62L235.566 357.94C235.66 358.22 235.706 358.687 235.706 359.34C235.706 359.9 235.38 360.507 234.726 361.16C234.166 361.72 233.466 362 232.626 362H206.726C203.926 362 202.106 360.833 201.266 358.5L197.906 349.26H167.806L164.446 358.5C163.606 360.833 161.786 362 158.986 362H133.086C132.246 362 131.5 361.72 130.846 361.16C130.286 360.507 130.006 359.9 130.006 359.34C130.006 358.687 130.053 358.22 130.146 357.94L161.366 268.62C162.206 265.54 164.306 264 167.666 264ZM174.946 321.96H190.766L182.786 295.92L174.946 321.96ZM262.608 264H339.328C340.355 264 341.241 264.373 341.988 265.12C342.735 265.867 343.108 266.753 343.108 267.78V331.2H349.128C350.155 331.2 351.041 331.573 351.788 332.32C352.535 333.067 352.908 333.953 352.908 334.98V375.44C352.908 376.467 352.535 377.353 351.788 378.1C351.041 378.847 350.155 379.22 349.128 379.22H321.688C320.661 379.22 319.775 378.847 319.028 378.1C318.281 377.353 317.908 376.467 317.908 375.44V362H279.828V375.44C279.828 376.467 279.455 377.353 278.708 378.1C277.961 378.847 277.075 379.22 276.048 379.22H248.608C247.581 379.22 246.695 378.847 245.948 378.1C245.201 377.447 244.828 376.56 244.828 375.44V334.98C244.828 333.953 245.201 333.067 245.948 332.32C246.695 331.573 247.581 331.2 248.608 331.2H249.168C251.968 331.2 254.255 330.267 256.028 328.4C257.895 326.533 258.828 323.873 258.828 320.42V267.78C258.828 266.753 259.201 265.867 259.948 265.12C260.695 264.373 261.581 264 262.608 264ZM308.108 294.8H293.828V320.56C293.828 325.787 293.408 329.333 292.568 331.2H308.108V294.8ZM399.678 264H430.058C433.418 264 435.518 265.54 436.358 268.62L467.578 357.94C467.671 358.22 467.718 358.687 467.718 359.34C467.718 359.9 467.391 360.507 466.738 361.16C466.178 361.72 465.478 362 464.638 362H438.738C435.938 362 434.118 360.833 433.278 358.5L429.918 349.26H399.818L396.458 358.5C395.618 360.833 393.798 362 390.998 362H365.098C364.258 362 363.511 361.72 362.858 361.16C362.298 360.507 362.018 359.9 362.018 359.34C362.018 358.687 362.065 358.22 362.158 357.94L393.378 268.62C394.218 265.54 396.318 264 399.678 264ZM406.958 321.96H422.778L414.798 295.92L406.958 321.96ZM510.72 267.78V290.32C510.72 297.6 513.847 301.24 520.1 301.24H529.62V267.78C529.62 266.753 529.993 265.867 530.74 265.12C531.487 264.373 532.373 264 533.4 264H562.24C563.267 264 564.153 264.373 564.9 265.12C565.647 265.867 566.02 266.753 566.02 267.78V358.22C566.02 359.247 565.647 360.133 564.9 360.88C564.153 361.627 563.267 362 562.24 362H533.4C532.373 362 531.487 361.627 530.74 360.88C529.993 360.133 529.62 359.247 529.62 358.22V333.16H519.68C505.587 333.16 494.48 329.52 486.36 322.24C478.24 314.867 474.227 304.04 474.32 289.76L474.46 267.78C474.46 266.753 474.833 265.867 475.58 265.12C476.327 264.373 477.213 264 478.24 264H506.94C507.967 264 508.853 264.373 509.6 265.12C510.347 265.867 510.72 266.753 510.72 267.78ZM645.537 264H672.977C674.003 264 674.89 264.373 675.637 265.12C676.383 265.867 676.757 266.753 676.757 267.78V358.22C676.757 359.247 676.383 360.133 675.637 360.88C674.89 361.627 674.003 362 672.977 362H645.537C644.51 362 643.623 361.627 642.877 360.88C642.13 360.133 641.757 359.247 641.757 358.22V327.98H619.077V358.22C619.077 359.247 618.703 360.133 617.957 360.88C617.21 361.627 616.323 362 615.297 362H587.857C586.83 362 585.943 361.673 585.197 361.02C584.45 360.273 584.077 359.34 584.077 358.22V267.78C584.077 266.753 584.45 265.867 585.197 265.12C585.943 264.373 586.83 264 587.857 264H615.297C616.323 264 617.21 264.373 617.957 265.12C618.703 265.867 619.077 266.753 619.077 267.78V297.18H641.757V267.78C641.757 266.753 642.13 265.867 642.877 265.12C643.623 264.373 644.51 264 645.537 264ZM698.735 264H724.075C725.102 264 725.989 264.373 726.735 265.12C727.482 265.867 727.855 266.753 727.855 267.78V306L751.515 267.22C752.729 265.073 754.642 264 757.255 264H779.375C780.402 264 781.289 264.373 782.035 265.12C782.782 265.867 783.155 266.753 783.155 267.78V358.22C783.155 359.247 782.782 360.133 782.035 360.88C781.289 361.627 780.402 362 779.375 362H754.035C753.009 362 752.122 361.627 751.375 360.88C750.629 360.133 750.255 359.247 750.255 358.22V323.08L726.595 358.78C725.195 360.927 723.282 362 720.855 362H698.735C697.709 362 696.822 361.627 696.075 360.88C695.329 360.133 694.955 359.247 694.955 358.22V267.78C694.955 266.753 695.329 265.867 696.075 265.12C696.822 264.373 697.709 264 698.735 264ZM893.023 357.38C893.303 357.847 893.443 358.453 893.443 359.2C893.443 359.853 893.116 360.507 892.463 361.16C891.903 361.72 891.203 362 890.363 362H858.443C855.736 362 853.823 360.927 852.703 358.78L835.623 328.26V358.22C835.623 359.247 835.249 360.133 834.503 360.88C833.756 361.627 832.869 362 831.843 362H805.103C804.076 362 803.189 361.627 802.443 360.88C801.696 360.133 801.323 359.247 801.323 358.22V267.78C801.323 266.753 801.696 265.867 802.443 265.12C803.189 264.373 804.076 264 805.103 264H831.843C832.869 264 833.756 264.373 834.503 265.12C835.249 265.867 835.623 266.753 835.623 267.78V295.5L851.443 267.08C852.469 265.027 854.336 264 857.043 264H887.983C888.823 264 889.523 264.327 890.083 264.98C890.736 265.54 891.063 266.193 891.063 266.94C891.063 267.593 890.923 268.153 890.643 268.62L865.443 310.9L893.023 357.38Z" fill="white"/>
</g>
<g filter="url(#filter2_d_201_51)">
<rect x="10" y="400" width="900" height="10" fill="white"/>
</g>
<g filter="url(#filter3_d_201_51)">
<rect x="10" y="207" width="900" height="10" fill="white"/>
</g>
<g clip-path="url(#clip0_201_51)">
<g filter="url(#filter4_d_201_51)">
<path d="M497.333 688.57H421.697C383.405 688.57 352.364 719.681 352.364 758.059C352.364 796.436 383.405 827.547 421.697 827.547H497.333C535.625 827.547 566.667 796.436 566.667 758.059C566.667 719.681 535.625 688.57 497.333 688.57Z" fill="#DBFF00"/>
</g>
<g filter="url(#filter5_i_201_51)">
<path d="M399.491 726.862C405.438 722.068 413.292 719.67 423.054 719.67C432.816 719.67 440.638 722.1 446.521 726.959C452.468 731.753 455.442 738.524 455.442 747.271V762.432C455.442 771.308 452.501 778.079 446.618 782.744C440.8 787.344 432.945 789.645 423.054 789.645C413.163 789.645 405.277 787.344 399.394 782.744C393.576 778.079 390.667 771.308 390.667 762.432V747.271C390.667 738.459 393.608 731.656 399.491 726.862ZM417.818 768.749C419.111 770.045 420.856 770.693 423.054 770.693C425.253 770.693 426.998 770.045 428.291 768.749C429.583 767.454 430.23 765.477 430.23 762.821V746.494C430.23 743.902 429.583 741.958 428.291 740.663C426.998 739.302 425.253 738.622 423.054 738.622C420.856 738.622 419.111 739.302 417.818 740.663C416.525 741.958 415.879 743.902 415.879 746.494V762.821C415.879 765.477 416.525 767.454 417.818 768.749ZM507.012 720.642H524.563C525.275 720.642 525.889 720.902 526.406 721.42C526.923 721.938 527.181 722.554 527.181 723.266V786.049C527.181 786.761 526.923 787.377 526.406 787.895C525.889 788.413 525.275 788.673 524.563 788.673H509.242C507.562 788.673 506.236 787.927 505.266 786.437L488.878 761.655V786.049C488.878 786.761 488.62 787.377 488.103 787.895C487.586 788.413 486.972 788.673 486.26 788.673H468.709C467.998 788.673 467.384 788.413 466.866 787.895C466.349 787.377 466.091 786.761 466.091 786.049V723.266C466.091 722.554 466.349 721.938 466.866 721.42C467.384 720.902 467.998 720.642 468.709 720.642H484.03C485.84 720.642 487.166 721.387 488.006 722.877L504.394 749.798V723.266C504.394 722.554 504.652 721.938 505.169 721.42C505.687 720.902 506.301 720.642 507.012 720.642Z" fill="#7400E8"/>
</g>
<g filter="url(#filter6_d_201_51)">
<path d="M351.239 580.188H393.906C395.043 580.188 396.026 580.602 396.853 581.432C397.681 582.261 398.095 583.246 398.095 584.386V604.601C398.095 618.285 393.234 628.859 383.51 636.323C373.787 643.683 360.807 647.363 344.567 647.363C328.432 647.363 315.709 643.787 306.4 636.634C297.091 629.377 292.437 618.544 292.437 604.134V578.011C292.437 564.223 297.195 553.701 306.71 546.444C316.226 539.084 328.897 535.404 344.723 535.404C360.652 535.404 373.529 538.773 383.355 545.511C393.181 552.146 398.095 560.336 398.095 570.08C398.095 571.013 397.733 571.843 397.009 572.568C396.388 573.19 395.612 573.501 394.681 573.501H360.393C358.324 573.501 356.824 572.931 355.893 571.791C353.825 569.095 352.273 567.54 351.239 567.126C348.86 566.193 346.688 565.726 344.723 565.726C336.758 565.726 332.776 569.614 332.776 577.389V603.823C332.776 612.635 337.017 617.041 345.498 617.041C354.187 617.041 358.531 613.309 358.531 605.845H351.239C350.101 605.845 349.119 605.43 348.291 604.601C347.464 603.772 347.05 602.786 347.05 601.646V584.386C347.05 583.246 347.464 582.261 348.291 581.432C349.119 580.602 350.101 580.188 351.239 580.188ZM419.426 536.959H464.11C479.211 536.959 491.623 540.743 501.346 548.31C511.172 555.774 516.085 566.245 516.085 579.721V602.89C516.085 616.989 511.327 627.666 501.812 634.923C492.295 642.18 479.78 645.808 464.265 645.808H419.426C418.288 645.808 417.305 645.393 416.478 644.564C415.65 643.735 415.237 642.75 415.237 641.61V541.158C415.237 540.017 415.65 539.032 416.478 538.203C417.305 537.374 418.288 536.959 419.426 536.959ZM454.025 567.281V615.486H464.11C467.626 615.486 470.419 614.449 472.488 612.376C474.66 610.199 475.746 607.037 475.746 602.89V579.721C475.746 571.428 471.867 567.281 464.11 567.281H454.025ZM622.793 613.931C623.93 613.931 624.914 614.346 625.741 615.175C626.568 616.004 626.982 616.989 626.982 618.129V641.61C626.982 642.75 626.568 643.735 625.741 644.564C624.914 645.393 623.93 645.808 622.793 645.808H534.201C533.064 645.808 532.081 645.393 531.253 644.564C530.426 643.735 530.012 642.75 530.012 641.61V619.218C530.012 617.145 530.788 615.33 532.34 613.775L575.782 568.525H534.977C533.84 568.525 532.856 568.111 532.029 567.281C531.202 566.452 530.788 565.467 530.788 564.327V541.158C530.788 540.017 531.202 539.032 532.029 538.203C532.856 537.374 533.84 536.959 534.977 536.959H620.776C621.913 536.959 622.897 537.374 623.724 538.203C624.551 539.032 624.965 540.017 624.965 541.158V563.238C624.965 565.312 624.293 567.022 622.948 568.37L581.833 613.931H622.793Z" fill="white"/>
</g>
</g>
<defs>
<filter id="filter0_i_201_51" x="10" y="0" width="900" height="1200" filterUnits="userSpaceOnUse" color-interpolation-filters="sRGB">
<feFlood flood-opacity="0" result="BackgroundImageFix"/>
<feBlend mode="normal" in="SourceGraphic" in2="BackgroundImageFix" result="shape"/>
<feColorMatrix in="SourceAlpha" type="matrix" values="0 0 0 0 0 0 0 0 0 0 0 0 0 0 0 0 0 0 127 0" result="hardAlpha"/>
<feOffset/>
<feGaussianBlur stdDeviation="10"/>
<feComposite in2="hardAlpha" operator="arithmetic" k2="-1" k3="1"/>
<feColorMatrix type="matrix" values="0 0 0 0 0 0 0 0 0 0 0 0 0 0 0 0 0 0 0.3 0"/>
<feBlend mode="normal" in2="shape" result="effect1_innerShadow_201_51"/>
</filter>
<filter id="filter1_d_201_51" x="19.6001" y="258.6" width="883.843" height="136.62" filterUnits="userSpaceOnUse" color-interpolation-filters="sRGB">
<feFlood flood-opacity="0" result="BackgroundImageFix"/>
<feColorMatrix in="SourceAlpha" type="matrix" values="0 0 0 0 0 0 0 0 0 0 0 0 0 0 0 0 0 0 127 0" result="hardAlpha"/>
<feOffset dy="6"/>
<feGaussianBlur stdDeviation="5"/>
<feComposite in2="hardAlpha" operator="out"/>
<feColorMatrix type="matrix" values="0 0 0 0 0 0 0 0 0 0 0 0 0 0 0 0 0 0 0.3 0"/>
<feBlend mode="normal" in2="BackgroundImageFix" result="effect1_dropShadow_201_51"/>
<feBlend mode="normal" in="SourceGraphic" in2="effect1_dropShadow_201_51" result="shape"/>
</filter>
<filter id="filter2_d_201_51" x="0" y="396" width="920" height="30" filterUnits="userSpaceOnUse" color-interpolation-filters="sRGB">
<feFlood flood-opacity="0" result="BackgroundImageFix"/>
<feColorMatrix in="SourceAlpha" type="matrix" values="0 0 0 0 0 0 0 0 0 0 0 0 0 0 0 0 0 0 127 0" result="hardAlpha"/>
<feOffset dy="6"/>
<feGaussianBlur stdDeviation="5"/>
<feComposite in2="hardAlpha" operator="out"/>
<feColorMatrix type="matrix" values="0 0 0 0 0 0 0 0 0 0 0 0 0 0 0 0 0 0 0.3 0"/>
<feBlend mode="normal" in2="BackgroundImageFix" result="effect1_dropShadow_201_51"/>
<feBlend mode="normal" in="SourceGraphic" in2="effect1_dropShadow_201_51" result="shape"/>
</filter>
<filter id="filter3_d_201_51" x="0" y="203" width="920" height="30" filterUnits="userSpaceOnUse" color-interpolation-filters="sRGB">
<feFlood flood-opacity="0" result="BackgroundImageFix"/>
<feColorMatrix in="SourceAlpha" type="matrix" values="0 0 0 0 0 0 0 0 0 0 0 0 0 0 0 0 0 0 127 0" result="hardAlpha"/>
<feOffset dy="6"/>
<feGaussianBlur stdDeviation="5"/>
<feComposite in2="hardAlpha" operator="out"/>
<feColorMatrix type="matrix" values="0 0 0 0 0 0 0 0 0 0 0 0 0 0 0 0 0 0 0.3 0"/>
<feBlend mode="normal" in2="BackgroundImageFix" result="effect1_dropShadow_201_51"/>
<feBlend mode="normal" in="SourceGraphic" in2="effect1_dropShadow_201_51" result="shape"/>
</filter>
<filter id="filter4_d_201_51" x="327.364" y="688.57" width="264.303" height="193.977" filterUnits="userSpaceOnUse" color-interpolation-filters="sRGB">
<feFlood flood-opacity="0" result="BackgroundImageFix"/>
<feColorMatrix in="SourceAlpha" type="matrix" values="0 0 0 0 0 0 0 0 0 0 0 0 0 0 0 0 0 0 127 0" result="hardAlpha"/>
<feOffset dy="30"/>
<feGaussianBlur stdDeviation="12.5"/>
<feColorMatrix type="matrix" values="0 0 0 0 0 0 0 0 0 0 0 0 0 0 0 0 0 0 0.25 0"/>
<feBlend mode="normal" in2="BackgroundImageFix" result="effect1_dropShadow_201_51"/>
<feBlend mode="normal" in="SourceGraphic" in2="effect1_dropShadow_201_51" result="shape"/>
</filter>
<filter id="filter5_i_201_51" x="390.667" y="719.67" width="136.515" height="69.9744" filterUnits="userSpaceOnUse" color-interpolation-filters="sRGB">
<feFlood flood-opacity="0" result="BackgroundImageFix"/>
<feBlend mode="normal" in="SourceGraphic" in2="BackgroundImageFix" result="shape"/>
<feColorMatrix in="SourceAlpha" type="matrix" values="0 0 0 0 0 0 0 0 0 0 0 0 0 0 0 0 0 0 127 0" result="hardAlpha"/>
<feOffset/>
<feGaussianBlur stdDeviation="20"/>
<feComposite in2="hardAlpha" operator="arithmetic" k2="-1" k3="1"/>
<feColorMatrix type="matrix" values="0 0 0 0 0 0 0 0 0 0 0 0 0 0 0 0 0 0 0.3 0"/>
<feBlend mode="normal" in2="shape" result="effect1_innerShadow_201_51"/>
</filter>
<filter id="filter6_d_201_51" x="267.437" y="535.404" width="384.545" height="166.959" filterUnits="userSpaceOnUse" color-interpolation-filters="sRGB">
<feFlood flood-opacity="0" result="BackgroundImageFix"/>
<feColorMatrix in="SourceAlpha" type="matrix" values="0 0 0 0 0 0 0 0 0 0 0 0 0 0 0 0 0 0 127 0" result="hardAlpha"/>
<feOffset dy="30"/>
<feGaussianBlur stdDeviation="12.5"/>
<feColorMatrix type="matrix" values="0 0 0 0 0 0 0 0 0 0 0 0 0 0 0 0 0 0 0.25 0"/>
<feBlend mode="normal" in2="BackgroundImageFix" result="effect1_dropShadow_201_51"/>
<feBlend mode="normal" in="SourceGraphic" in2="effect1_dropShadow_201_51" result="shape"/>
</filter>
<clipPath id="clip0_201_51">
<rect width="384" height="380" fill="white" transform="translate(268 501)"/>
</clipPath>
</defs>
</svg>
