<svg width="920" height="1200" viewBox="0 0 920 1200" fill="none" xmlns="http://www.w3.org/2000/svg">
<g filter="url(#filter0_i_201_50)">
<rect x="10" width="900" height="1200" fill="#7400E8"/>
</g>
<g filter="url(#filter1_d_201_50)">
<path d="M73.224 328.616H88.824C94.024 328.616 96.884 327.888 97.404 326.432L61.056 257.636C60.952 257.324 60.9 256.96 60.9 256.544C61.316 254.048 62.616 252.8 64.8 252.8H97.404C99.588 252.8 101.252 254.048 102.396 256.544L116.904 287.276L128.448 256.544C129.488 254.048 131.256 252.8 133.752 252.8H166.044C166.98 252.8 167.812 253.164 168.54 253.892C169.268 254.516 169.632 255.244 169.632 256.076C169.632 256.908 169.58 257.428 169.476 257.636L138.432 330.176C133.024 342.864 127.304 351.34 121.272 355.604C115.344 359.868 105.828 362 92.724 362H73.224C72.08 362 71.092 361.584 70.26 360.752C69.428 359.92 69.012 358.932 69.012 357.788V332.828C69.012 331.684 69.428 330.696 70.26 329.864C71.092 329.032 72.08 328.616 73.224 328.616ZM216.048 257.012V282.128C216.048 290.24 219.532 294.296 226.5 294.296H237.108V257.012C237.108 255.868 237.524 254.88 238.356 254.048C239.188 253.216 240.176 252.8 241.32 252.8H273.456C274.6 252.8 275.588 253.216 276.42 254.048C277.252 254.88 277.668 255.868 277.668 257.012V357.788C277.668 358.932 277.252 359.92 276.42 360.752C275.588 361.584 274.6 362 273.456 362H241.32C240.176 362 239.188 361.584 238.356 360.752C237.524 359.92 237.108 358.932 237.108 357.788V329.864H226.032C210.328 329.864 197.952 325.808 188.904 317.696C179.856 309.48 175.384 297.416 175.488 281.504L175.644 257.012C175.644 255.868 176.06 254.88 176.892 254.048C177.724 253.216 178.712 252.8 179.856 252.8H211.836C212.98 252.8 213.968 253.216 214.8 254.048C215.632 254.88 216.048 255.868 216.048 257.012ZM335.228 331.58H383.276C384.42 331.58 385.408 331.996 386.24 332.828C387.072 333.66 387.488 334.648 387.488 335.792V357.788C387.488 358.932 387.072 359.92 386.24 360.752C385.408 361.584 384.42 362 383.276 362H302C300.856 362 299.868 361.584 299.036 360.752C298.204 359.92 297.788 358.932 297.788 357.788V257.012C297.788 255.868 298.204 254.88 299.036 254.048C299.868 253.216 300.856 252.8 302 252.8H382.028C383.172 252.8 384.16 253.216 384.992 254.048C385.824 254.88 386.24 255.868 386.24 257.012V279.008C386.24 280.152 385.824 281.14 384.992 281.972C384.16 282.804 383.172 283.22 382.028 283.22H335.228V293.048H378.596C379.74 293.048 380.728 293.464 381.56 294.296C382.392 295.128 382.808 296.116 382.808 297.26V317.54C382.808 318.684 382.392 319.672 381.56 320.504C380.728 321.336 379.74 321.752 378.596 321.752H335.228V331.58ZM410.469 252.8H485.193C486.337 252.8 487.325 253.216 488.157 254.048C488.989 254.88 489.405 255.868 489.405 257.012V279.008C489.405 280.152 488.989 281.14 488.157 281.972C487.325 282.804 486.337 283.22 485.193 283.22H445.257V292.268H455.241C468.969 292.268 479.837 295.284 487.845 301.316C495.957 307.244 500.013 315.668 500.013 326.588C500.013 337.508 496.061 346.14 488.157 352.484C480.253 358.828 469.281 362 455.241 362H410.469C409.325 362 408.337 361.584 407.505 360.752C406.673 359.92 406.257 358.932 406.257 357.788V257.012C406.257 255.868 406.673 254.88 407.505 254.048C408.337 253.216 409.325 252.8 410.469 252.8ZM445.257 318.32V335.168H455.085C457.373 335.168 459.141 334.232 460.389 332.36C461.637 330.488 462.261 328.512 462.261 326.432C462.261 324.352 461.585 322.48 460.233 320.816C458.985 319.152 457.269 318.32 455.085 318.32H445.257ZM583.362 252.8H613.938C615.082 252.8 616.07 253.216 616.902 254.048C617.734 254.88 618.15 255.868 618.15 257.012V357.788C618.15 358.932 617.734 359.92 616.902 360.752C616.07 361.584 615.082 362 613.938 362H583.362C582.218 362 581.23 361.584 580.398 360.752C579.566 359.92 579.15 358.932 579.15 357.788V324.092H553.878V357.788C553.878 358.932 553.462 359.92 552.63 360.752C551.798 361.584 550.81 362 549.666 362H519.09C517.946 362 516.958 361.636 516.126 360.908C515.294 360.076 514.878 359.036 514.878 357.788V257.012C514.878 255.868 515.294 254.88 516.126 254.048C516.958 253.216 517.946 252.8 519.09 252.8H549.666C550.81 252.8 551.798 253.216 552.63 254.048C553.462 254.88 553.878 255.868 553.878 257.012V289.772H579.15V257.012C579.15 255.868 579.566 254.88 580.398 254.048C581.23 253.216 582.218 252.8 583.362 252.8ZM642.641 252.8H670.877C672.021 252.8 673.009 253.216 673.841 254.048C674.673 254.88 675.089 255.868 675.089 257.012V299.6L701.453 256.388C702.805 253.996 704.937 252.8 707.849 252.8H732.497C733.641 252.8 734.629 253.216 735.461 254.048C736.293 254.88 736.709 255.868 736.709 257.012V357.788C736.709 358.932 736.293 359.92 735.461 360.752C734.629 361.584 733.641 362 732.497 362H704.261C703.117 362 702.129 361.584 701.297 360.752C700.465 359.92 700.049 358.932 700.049 357.788V318.632L673.685 358.412C672.125 360.804 669.993 362 667.289 362H642.641C641.497 362 640.509 361.584 639.677 360.752C638.845 359.92 638.429 358.932 638.429 357.788V257.012C638.429 255.868 638.845 254.88 639.677 254.048C640.509 253.216 641.497 252.8 642.641 252.8ZM859.133 356.852C859.445 357.372 859.601 358.048 859.601 358.88C859.601 359.608 859.237 360.336 858.509 361.064C857.885 361.688 857.105 362 856.169 362H820.601C817.585 362 815.453 360.804 814.205 358.412L795.173 324.404V357.788C795.173 358.932 794.757 359.92 793.925 360.752C793.093 361.584 792.105 362 790.961 362H761.165C760.021 362 759.033 361.584 758.201 360.752C757.369 359.92 756.953 358.932 756.953 357.788V257.012C756.953 255.868 757.369 254.88 758.201 254.048C759.033 253.216 760.021 252.8 761.165 252.8H790.961C792.105 252.8 793.093 253.216 793.925 254.048C794.757 254.88 795.173 255.868 795.173 257.012V287.9L812.801 256.232C813.945 253.944 816.025 252.8 819.041 252.8H853.517C854.453 252.8 855.233 253.164 855.857 253.892C856.585 254.516 856.949 255.244 856.949 256.076C856.949 256.804 856.793 257.428 856.481 257.948L828.401 305.06L859.133 356.852Z" fill="white"/>
</g>
<g filter="url(#filter2_d_201_50)">
<rect x="10" y="400" width="900" height="10" fill="white"/>
</g>
<g filter="url(#filter3_d_201_50)">
<rect x="10" y="207" width="900" height="10" fill="white"/>
</g>
<g clip-path="url(#clip0_201_50)">
<g filter="url(#filter4_d_201_50)">
<path d="M497.333 688.57H421.697C383.405 688.57 352.364 719.681 352.364 758.059C352.364 796.436 383.405 827.547 421.697 827.547H497.333C535.625 827.547 566.667 796.436 566.667 758.059C566.667 719.681 535.625 688.57 497.333 688.57Z" fill="#DBFF00"/>
</g>
<g filter="url(#filter5_i_201_50)">
<path d="M399.491 726.862C405.438 722.068 413.293 719.67 423.055 719.67C432.817 719.67 440.638 722.1 446.521 726.959C452.468 731.753 455.443 738.524 455.443 747.271V762.432C455.443 771.308 452.501 778.079 446.618 782.744C440.8 787.344 432.946 789.645 423.055 789.645C413.164 789.645 405.277 787.344 399.394 782.744C393.576 778.079 390.667 771.308 390.667 762.432V747.271C390.667 738.459 393.608 731.656 399.491 726.862ZM417.818 768.749C419.111 770.045 420.856 770.693 423.055 770.693C425.253 770.693 426.998 770.045 428.291 768.749C429.584 767.454 430.23 765.477 430.23 762.821V746.494C430.23 743.902 429.584 741.958 428.291 740.663C426.998 739.302 425.253 738.622 423.055 738.622C420.856 738.622 419.111 739.302 417.818 740.663C416.526 741.958 415.879 743.902 415.879 746.494V762.821C415.879 765.477 416.526 767.454 417.818 768.749ZM507.012 720.642H524.563C525.275 720.642 525.889 720.902 526.406 721.42C526.924 721.938 527.182 722.554 527.182 723.266V786.049C527.182 786.761 526.924 787.377 526.406 787.895C525.889 788.413 525.275 788.673 524.563 788.673H509.242C507.562 788.673 506.236 787.927 505.267 786.437L488.879 761.655V786.049C488.879 786.761 488.621 787.377 488.103 787.895C487.586 788.413 486.972 788.673 486.26 788.673H468.709C467.998 788.673 467.384 788.413 466.866 787.895C466.35 787.377 466.091 786.761 466.091 786.049V723.266C466.091 722.554 466.35 721.938 466.866 721.42C467.384 720.902 467.998 720.642 468.709 720.642H484.03C485.841 720.642 487.166 721.387 488.006 722.877L504.394 749.798V723.266C504.394 722.554 504.653 721.938 505.17 721.42C505.687 720.902 506.301 720.642 507.012 720.642Z" fill="#7400E8"/>
</g>
<g filter="url(#filter6_d_201_50)">
<path d="M351.239 580.188H393.905C395.043 580.188 396.026 580.602 396.853 581.432C397.68 582.261 398.094 583.246 398.094 584.386V604.601C398.094 618.285 393.233 628.859 383.51 636.323C373.787 643.683 360.806 647.363 344.567 647.363C328.431 647.363 315.709 643.787 306.4 636.634C297.091 629.377 292.436 618.544 292.436 604.134V578.011C292.436 564.223 297.194 553.701 306.71 546.444C316.226 539.084 328.897 535.404 344.722 535.404C360.651 535.404 373.529 538.773 383.355 545.511C393.181 552.146 398.094 560.336 398.094 570.08C398.094 571.013 397.733 571.843 397.008 572.568C396.388 573.19 395.612 573.501 394.681 573.501H360.393C358.324 573.501 356.824 572.931 355.893 571.791C353.825 569.095 352.273 567.54 351.239 567.126C348.86 566.193 346.688 565.726 344.722 565.726C336.758 565.726 332.776 569.614 332.776 577.389V603.823C332.776 612.635 337.016 617.041 345.498 617.041C354.187 617.041 358.531 613.309 358.531 605.845H351.239C350.101 605.845 349.118 605.43 348.291 604.601C347.463 603.772 347.05 602.786 347.05 601.646V584.386C347.05 583.246 347.463 582.261 348.291 581.432C349.118 580.602 350.101 580.188 351.239 580.188ZM419.426 536.959H464.109C479.211 536.959 491.623 540.743 501.346 548.31C511.172 555.774 516.085 566.245 516.085 579.721V602.89C516.085 616.989 511.327 627.666 501.811 634.923C492.295 642.18 479.78 645.808 464.265 645.808H419.426C418.287 645.808 417.305 645.393 416.478 644.564C415.65 643.735 415.237 642.75 415.237 641.61V541.158C415.237 540.017 415.65 539.032 416.478 538.203C417.305 537.374 418.287 536.959 419.426 536.959ZM454.025 567.281V615.486H464.109C467.626 615.486 470.418 614.449 472.488 612.376C474.66 610.199 475.746 607.037 475.746 602.89V579.721C475.746 571.428 471.867 567.281 464.109 567.281H454.025ZM622.793 613.931C623.93 613.931 624.913 614.346 625.741 615.175C626.568 616.004 626.982 616.989 626.982 618.129V641.61C626.982 642.75 626.568 643.735 625.741 644.564C624.913 645.393 623.93 645.808 622.793 645.808H534.201C533.064 645.808 532.08 645.393 531.253 644.564C530.426 643.735 530.012 642.75 530.012 641.61V619.218C530.012 617.145 530.788 615.33 532.339 613.775L575.782 568.525H534.977C533.839 568.525 532.856 568.111 532.029 567.281C531.202 566.452 530.788 565.467 530.788 564.327V541.158C530.788 540.017 531.202 539.032 532.029 538.203C532.856 537.374 533.839 536.959 534.977 536.959H620.776C621.913 536.959 622.896 537.374 623.724 538.203C624.551 539.032 624.965 540.017 624.965 541.158V563.238C624.965 565.312 624.293 567.022 622.948 568.37L581.833 613.931H622.793Z" fill="white"/>
</g>
</g>
<defs>
<filter id="filter0_i_201_50" x="10" y="0" width="900" height="1200" filterUnits="userSpaceOnUse" color-interpolation-filters="sRGB">
<feFlood flood-opacity="0" result="BackgroundImageFix"/>
<feBlend mode="normal" in="SourceGraphic" in2="BackgroundImageFix" result="shape"/>
<feColorMatrix in="SourceAlpha" type="matrix" values="0 0 0 0 0 0 0 0 0 0 0 0 0 0 0 0 0 0 127 0" result="hardAlpha"/>
<feOffset/>
<feGaussianBlur stdDeviation="10"/>
<feComposite in2="hardAlpha" operator="arithmetic" k2="-1" k3="1"/>
<feColorMatrix type="matrix" values="0 0 0 0 0 0 0 0 0 0 0 0 0 0 0 0 0 0 0.3 0"/>
<feBlend mode="normal" in2="shape" result="effect1_innerShadow_201_50"/>
</filter>
<filter id="filter1_d_201_50" x="50.8999" y="248.8" width="818.701" height="129.2" filterUnits="userSpaceOnUse" color-interpolation-filters="sRGB">
<feFlood flood-opacity="0" result="BackgroundImageFix"/>
<feColorMatrix in="SourceAlpha" type="matrix" values="0 0 0 0 0 0 0 0 0 0 0 0 0 0 0 0 0 0 127 0" result="hardAlpha"/>
<feOffset dy="6"/>
<feGaussianBlur stdDeviation="5"/>
<feComposite in2="hardAlpha" operator="out"/>
<feColorMatrix type="matrix" values="0 0 0 0 0 0 0 0 0 0 0 0 0 0 0 0 0 0 0.3 0"/>
<feBlend mode="normal" in2="BackgroundImageFix" result="effect1_dropShadow_201_50"/>
<feBlend mode="normal" in="SourceGraphic" in2="effect1_dropShadow_201_50" result="shape"/>
</filter>
<filter id="filter2_d_201_50" x="0" y="396" width="920" height="30" filterUnits="userSpaceOnUse" color-interpolation-filters="sRGB">
<feFlood flood-opacity="0" result="BackgroundImageFix"/>
<feColorMatrix in="SourceAlpha" type="matrix" values="0 0 0 0 0 0 0 0 0 0 0 0 0 0 0 0 0 0 127 0" result="hardAlpha"/>
<feOffset dy="6"/>
<feGaussianBlur stdDeviation="5"/>
<feComposite in2="hardAlpha" operator="out"/>
<feColorMatrix type="matrix" values="0 0 0 0 0 0 0 0 0 0 0 0 0 0 0 0 0 0 0.3 0"/>
<feBlend mode="normal" in2="BackgroundImageFix" result="effect1_dropShadow_201_50"/>
<feBlend mode="normal" in="SourceGraphic" in2="effect1_dropShadow_201_50" result="shape"/>
</filter>
<filter id="filter3_d_201_50" x="0" y="203" width="920" height="30" filterUnits="userSpaceOnUse" color-interpolation-filters="sRGB">
<feFlood flood-opacity="0" result="BackgroundImageFix"/>
<feColorMatrix in="SourceAlpha" type="matrix" values="0 0 0 0 0 0 0 0 0 0 0 0 0 0 0 0 0 0 127 0" result="hardAlpha"/>
<feOffset dy="6"/>
<feGaussianBlur stdDeviation="5"/>
<feComposite in2="hardAlpha" operator="out"/>
<feColorMatrix type="matrix" values="0 0 0 0 0 0 0 0 0 0 0 0 0 0 0 0 0 0 0.3 0"/>
<feBlend mode="normal" in2="BackgroundImageFix" result="effect1_dropShadow_201_50"/>
<feBlend mode="normal" in="SourceGraphic" in2="effect1_dropShadow_201_50" result="shape"/>
</filter>
<filter id="filter4_d_201_50" x="327.364" y="688.57" width="264.303" height="193.977" filterUnits="userSpaceOnUse" color-interpolation-filters="sRGB">
<feFlood flood-opacity="0" result="BackgroundImageFix"/>
<feColorMatrix in="SourceAlpha" type="matrix" values="0 0 0 0 0 0 0 0 0 0 0 0 0 0 0 0 0 0 127 0" result="hardAlpha"/>
<feOffset dy="30"/>
<feGaussianBlur stdDeviation="12.5"/>
<feColorMatrix type="matrix" values="0 0 0 0 0 0 0 0 0 0 0 0 0 0 0 0 0 0 0.25 0"/>
<feBlend mode="normal" in2="BackgroundImageFix" result="effect1_dropShadow_201_50"/>
<feBlend mode="normal" in="SourceGraphic" in2="effect1_dropShadow_201_50" result="shape"/>
</filter>
<filter id="filter5_i_201_50" x="390.667" y="719.67" width="136.515" height="69.9744" filterUnits="userSpaceOnUse" color-interpolation-filters="sRGB">
<feFlood flood-opacity="0" result="BackgroundImageFix"/>
<feBlend mode="normal" in="SourceGraphic" in2="BackgroundImageFix" result="shape"/>
<feColorMatrix in="SourceAlpha" type="matrix" values="0 0 0 0 0 0 0 0 0 0 0 0 0 0 0 0 0 0 127 0" result="hardAlpha"/>
<feOffset/>
<feGaussianBlur stdDeviation="20"/>
<feComposite in2="hardAlpha" operator="arithmetic" k2="-1" k3="1"/>
<feColorMatrix type="matrix" values="0 0 0 0 0 0 0 0 0 0 0 0 0 0 0 0 0 0 0.3 0"/>
<feBlend mode="normal" in2="shape" result="effect1_innerShadow_201_50"/>
</filter>
<filter id="filter6_d_201_50" x="267.436" y="535.404" width="384.545" height="166.959" filterUnits="userSpaceOnUse" color-interpolation-filters="sRGB">
<feFlood flood-opacity="0" result="BackgroundImageFix"/>
<feColorMatrix in="SourceAlpha" type="matrix" values="0 0 0 0 0 0 0 0 0 0 0 0 0 0 0 0 0 0 127 0" result="hardAlpha"/>
<feOffset dy="30"/>
<feGaussianBlur stdDeviation="12.5"/>
<feColorMatrix type="matrix" values="0 0 0 0 0 0 0 0 0 0 0 0 0 0 0 0 0 0 0.25 0"/>
<feBlend mode="normal" in2="BackgroundImageFix" result="effect1_dropShadow_201_50"/>
<feBlend mode="normal" in="SourceGraphic" in2="effect1_dropShadow_201_50" result="shape"/>
</filter>
<clipPath id="clip0_201_50">
<rect width="384" height="380" fill="white" transform="translate(268 501)"/>
</clipPath>
</defs>
</svg>
